<?xml version="1.0" encoding="UTF-8" standalone="no"?>
<svg
   viewBox="0 0 16 16"
   version="1.1"
   id="svg10"
   sodipodi:docname="click.svg"
   width="16"
   height="16"
   inkscape:version="1.2.2 (732a01da63, 2022-12-09)"
   xmlns:inkscape="http://www.inkscape.org/namespaces/inkscape"
   xmlns:sodipodi="http://sodipodi.sourceforge.net/DTD/sodipodi-0.dtd"
   xmlns="http://www.w3.org/2000/svg"
   xmlns:svg="http://www.w3.org/2000/svg">
  <defs
     id="defs14" />
  <sodipodi:namedview
     id="namedview12"
     pagecolor="#505050"
     bordercolor="#eeeeee"
     borderopacity="1"
     inkscape:showpageshadow="0"
     inkscape:pageopacity="0"
     inkscape:pagecheckerboard="0"
     inkscape:deskcolor="#505050"
     showgrid="true"
     inkscape:zoom="6.5390625"
     inkscape:cx="-17.81601"
     inkscape:cy="9.4814815"
     inkscape:window-width="1920"
     inkscape:window-height="1017"
     inkscape:window-x="-8"
     inkscape:window-y="-8"
     inkscape:window-maximized="1"
     inkscape:current-layer="svg10">
    <inkscape:grid
       type="xygrid"
       id="grid2020"
       originx="0"
       originy="0" />
  </sodipodi:namedview>
  <g
     class=""
     id="g8"
     transform="matrix(0.03740264,0,0,0.03638465,-2.7486052,-2.6829358)">
    <g
       id="g6">
      <path
         d="m 459.15,269.75 c 34.305,65.122 9.287,145.723 -55.862,179.975 l -42.782,22.541 -10.52,5.533 c -19.588,10.308 -42.854,10.931 -62.966,1.685 l -167.077,-71.38 15.733,-46.676 99.363,19.194 -51.458,-97.78 -82.843,-157.411 40.357,-21.232 82.844,157.457 19.934,-10.485 -36.521,-69.445 40.335,-21.22 36.52,69.445 19.935,-10.485 -28.2,-53.598 40.358,-21.232 28.2,53.598 19.945,-10.576 -19.354,-36.886 40.346,-21.174 19.354,36.885 54.348,103.301 z"
         class=""
         fill="#ffffff"
         fill-opacity="1"
         id="path2" />
      <path
         d="m 73.268,146.674 c -32.662,-32.69 -17.687,-88.48 26.955,-100.42 5.025,-1.345 10.204,-2.03 15.406,-2.039 41.467,0.046 70.429,41.083 56.58,80.169 l 10.588,20.013 C 213.671,92.638 176.938,26.867 116.676,26.008 116.353,26.003 116.031,26.001 115.708,26 55.484,26.009 17.853,91.208 47.973,143.359 c 12.971,22.46 36.231,37.031 62.1,38.903 L 99.428,162.02 c -9.896,-2.778 -18.907,-8.064 -26.16,-15.346 z"
         class="selected"
         fill="#ffffff"
         fill-opacity="0"
         id="path4" />
    </g>
  </g>
</svg>
